<svg width="89" height="72" viewBox="0 0 89 72" xmlns="http://www.w3.org/2000/svg"><rect width="89" height="72" rx="18" fill="#FAF9F5"/><path d="M0 58C20 41 37 65 53 49C66 36 76 38 96 27V72H0Z" fill="#DFF3E8" opacity=".58"/><g transform="translate(20.00 8.00) scale(0.7600)"><style>.n{fill:none;stroke:#102452;stroke-width:4;stroke-linecap:round;stroke-linejoin:round}.a{fill:none;stroke:#2F9B70;stroke-width:5;stroke-linecap:round;stroke-linejoin:round}.nfill{fill:#102452}</style><path class="a" d="M32 8L47 47H17L32 8Z"/><path class="n" d="M10 39C18 30 25 30 32 38C39 46 46 46 54 38M13 49C20 42 26 42 33 49C40 56 46 56 52 49"/><circle class="nfill" cx="18" cy="57" r="4"/><circle class="nfill" cx="32" cy="56" r="5"/><circle class="nfill" cx="46" cy="57" r="4"/></g></svg>
