<svg width="112" height="112" viewBox="0 0 112 112" xmlns="http://www.w3.org/2000/svg"><rect width="112" height="112" rx="22" fill="#ECE9FF"/><path d="M0 87C28 61 47 99 69 72C84 54 95 55 121 40V112H0Z" fill="#DFF3E8" opacity=".55"/><path d="M-8 84C22 54 47 93 67 70C83 51 94 51 120 35" fill="none" stroke="#3F65FC" stroke-width="8" stroke-linecap="round"/><circle cx="16" cy="69" r="6" fill="#FFC21A"/><g transform="translate(24.00 23.00) scale(1.0200)"><style>.n{fill:none;stroke:#102452;stroke-width:4;stroke-linecap:round;stroke-linejoin:round}.a{fill:none;stroke:#3F65FC;stroke-width:5;stroke-linecap:round;stroke-linejoin:round}.nfill{fill:#102452}</style><path class="n" d="M8 54V27L32 10L56 27V54M18 54V31H46V54M27 54V39C27 32 37 32 37 39V54"/><path class="a" d="M13 27H51"/></g></svg>
